<?xml version="1.0" encoding="utf-8"?>
<!-- Generator: Adobe Illustrator 17.1.0, SVG Export Plug-In . SVG Version: 6.00 Build 0)  -->
<!DOCTYPE svg PUBLIC "-//p3C//DTD SVG 1.1//EN" "http://www.w3.org/Graphics/SVG/1.1/DTD/svg11.dtd">
<svg version="1.1" id="Layer_1" xmlns="http://www.w3.org/2000/svg" width="265" height="64" preserveAspectRatio="xMidYMid meet"
 xmlns:xlink="http://www.w3.org/1999/xlink" x="0px" y="0px" viewBox="0 0 293.3 71.7" enable-background="new 0 0 293.3 71.7" xml:space="preserve">
<g>
	<g>
		<g>
			<g>
				<g>
					<linearGradient id="SVGID_1_" gradientUnits="userSpaceOnUse" x1="238.9583" y1="69.2973" x2="238.9583" y2="1.7785">
						<stop  offset="0" style="stop-color:#74A641"/>
						<stop  offset="1" style="stop-color:#A0CC3A"/>
					</linearGradient>
					<path fill="url(#SVGID_1_)" d="M281.3,1.8h-84.8c-2.4,0-4.3,1.9-4.3,4.3v43.1c0,2.4,1.9,4.3,4.3,4.3h31.6c0,0,0,0.1,0,0.1
						l9.5,15c0.3,0.4,0.7,0.7,1.2,0.7c0.5,0,1-0.3,1.2-0.7l9.5-15c0,0,0-0.1,0-0.1h31.6c2.4,0,4.3-1.9,4.3-4.3V6.1
						C285.6,3.7,283.7,1.8,281.3,1.8z"/>
					<g>
						<linearGradient id="SVGID_2_" gradientUnits="userSpaceOnUse" x1="238.9574" y1="1.7785" x2="238.9574" y2="4.5964">
							<stop  offset="0" style="stop-color:#CFDD62"/>
							<stop  offset="1" style="stop-color:#CFDD62;stop-opacity:0"/>
						</linearGradient>
						<path fill="url(#SVGID_2_)" d="M281.3,1.8h-84.8c-1.9,0-3.4,1.2-4,2.8h92.8C284.8,3,283.2,1.8,281.3,1.8z"/>
					</g>
				</g>
				<g>
					<path fill="#7C7C81" d="M18.5,21.1v2.7c-2.2-0.9-4.1-1.4-5.9-1.4c-2.5,0-4.6,0.9-6.1,2.6c-1.6,1.8-2.4,4-2.4,6.8
						c0,2.8,0.8,5.1,2.4,6.8c1.6,1.7,3.7,2.5,6.3,2.5c1.9,0,4-0.4,6.1-1.3v2.5c-2.3,0.8-4.4,1.2-6.3,1.2c-3.3,0-6-1-8-3.1
						c-2-2.1-3.1-4.8-3.1-8.3c0-3.6,1-6.4,3.1-8.7c2.1-2.3,4.7-3.4,7.9-3.4C14.3,20,16.3,20.4,18.5,21.1z"/>
					<path fill="#7C7C81" d="M34.1,20c3.3,0,6,1.1,8.2,3.4c2.2,2.2,3.3,5,3.3,8.4c0,3.3-1.1,6.1-3.3,8.4c-2.2,2.2-4.9,3.4-8.2,3.4
						c-3.3,0-6-1.1-8.2-3.4c-2.2-2.2-3.3-5-3.3-8.4c0-3.4,1.1-6.1,3.3-8.4C28.1,21.1,30.8,20,34.1,20z M34.1,41.1
						c2.5,0,4.7-0.9,6.4-2.7c1.7-1.8,2.6-4,2.6-6.7c0-2.7-0.9-4.9-2.6-6.7c-1.7-1.8-3.8-2.7-6.3-2.7c-2.5,0-4.7,0.9-6.4,2.7
						c-1.7,1.8-2.6,4-2.6,6.7c0,2.7,0.9,4.9,2.6,6.7C29.4,40.2,31.5,41.1,34.1,41.1z"/>
					<path fill="#7C7C81" d="M53.6,8.7V43h-2.4V8.7H53.6z"/>
					<path fill="#7C7C81" d="M63.1,8.7V43h-2.4V8.7H63.1z"/>
					<path fill="#7C7C81" d="M89,30.9H71.2c0,0.4-0.1,0.8-0.1,1.2c0,2.5,0.9,4.7,2.7,6.4c1.8,1.7,3.9,2.6,6.4,2.6
						c2.9,0,5.7-1.1,8.4-3.4v2.7c-2.6,2-5.5,3-8.7,3c-3.3,0-5.9-1.1-8.1-3.4c-2.1-2.3-3.2-5.1-3.2-8.6c0-3.3,1-6,2.9-8.2
						c2-2.2,4.4-3.2,7.4-3.2c2.8,0,5.2,1,7.1,2.9C88,24.9,89,27.5,89,30.9z M71.5,28.9h14.6c-0.9-4.4-3.2-6.6-7.1-6.6
						c-1.9,0-3.4,0.6-4.8,1.7C72.8,25.2,71.9,26.9,71.5,28.9z"/>
					<path fill="#7C7C81" d="M109.7,21.1v2.7c-2.2-0.9-4.1-1.4-5.9-1.4c-2.5,0-4.6,0.9-6.1,2.6c-1.6,1.8-2.4,4-2.4,6.8
						c0,2.8,0.8,5.1,2.4,6.8c1.6,1.7,3.7,2.5,6.3,2.5c1.9,0,4-0.4,6.1-1.3v2.5c-2.3,0.8-4.3,1.2-6.3,1.2c-3.3,0-6-1-8-3.1
						c-2-2.1-3.1-4.8-3.1-8.3c0-3.6,1-6.4,3.1-8.7c2.1-2.3,4.7-3.4,7.9-3.4C105.5,20,107.5,20.4,109.7,21.1z"/>
					<path fill="#7C7C81" d="M122,12.9v7.5h6.3v2H122v13.4c0,2.2,0.2,3.6,0.5,4.3c0.3,0.7,1.3,1,2.8,1c1.2,0,2.6-0.4,4.1-1.1v2.3
						c-1.6,0.8-3.1,1.2-4.7,1.2c-1.5,0-2.7-0.4-3.7-1.3c-1-0.8-1.5-2-1.5-3.5V22.4h-6.1v-2h6.1v-5.4l1.6-2.1H122z"/>
					<path fill="#7C7C81" d="M136.4,8.7v4.1h-2.4V8.7H136.4z M136.4,20.4V43h-2.4V20.4H136.4z"/>
					<path fill="#7C7C81" d="M161.8,20.4l-9.7,23h-1.5l-10.3-23h2.4l8.5,19l8.2-19H161.8z"/>
					<path fill="#7C7C81" d="M183.4,30.9h-17.8c-0.1,0.4-0.1,0.8-0.1,1.2c0,2.5,0.9,4.7,2.7,6.4c1.8,1.7,3.9,2.6,6.4,2.6
						c2.9,0,5.7-1.1,8.4-3.4v2.7c-2.6,2-5.5,3-8.7,3c-3.3,0-5.9-1.1-8.1-3.4c-2.1-2.3-3.2-5.1-3.2-8.6c0-3.3,1-6,2.9-8.2
						c2-2.2,4.4-3.2,7.4-3.2c2.8,0,5.2,1,7.1,2.9C182.4,24.9,183.4,27.5,183.4,30.9z M165.9,28.9h14.6c-0.9-4.4-3.2-6.6-7.1-6.6
						c-1.8,0-3.4,0.6-4.8,1.7C167.2,25.2,166.3,26.9,165.9,28.9z"/>
				</g>
				<g>
					<path fill="#FFFFFF" d="M205.5,41.8v-33h2.4v14.9c2.4-2.5,5.1-3.7,8.1-3.7c2.9,0,5.4,1,7.2,3.1c1.9,2.1,2.8,4.7,2.8,7.9
						c0,3.8-1.2,6.8-3.4,9c-2.3,2.3-5.4,3.4-9.2,3.4C211,43.4,208.4,42.9,205.5,41.8z M207.9,26.4V40c1.9,0.7,3.7,1.1,5.6,1.1
						c2.9,0,5.3-0.9,7.2-2.8c1.9-1.9,2.9-4.2,2.9-7.1c0-2.7-0.7-4.9-2.2-6.6c-1.5-1.7-3.3-2.6-5.6-2.6
						C213.1,22,210.5,23.5,207.9,26.4z"/>
					<path fill="#FFFFFF" d="M234,8.7v4.1h-2.4V8.7H234z M234,20.4V43h-2.4V20.4H234z"/>
					<path fill="#FFFFFF" d="M258.6,39.1v2c-2.1,1.6-3.6,2.4-4.6,2.4c-0.6,0-0.9-0.2-1.2-0.6c-0.2-0.4-0.4-1.1-0.5-2.2
						c-2.4,1.9-4.7,2.8-7.1,2.8c-1.7,0-3.1-0.6-4.3-1.7c-1.2-1.1-1.8-2.5-1.8-4c0-2.5,1.1-4.4,3.4-5.8c2.3-1.4,5.5-2.2,9.7-2.4v-2.9
						c0-3.1-1.7-4.6-5-4.6c-2.1,0-4.4,1-6.9,2.9v-2.5c2.6-1.6,5-2.4,7.3-2.4c2,0,3.7,0.5,5.1,1.5c1.3,1,2,2.5,2,4.4v14.1
						c0,0.8,0.2,1.1,0.5,1.1C255.9,41.1,257,40.4,258.6,39.1z M252.5,38.5v-7c-3.1-0.1-5.7,0.4-7.7,1.6c-2,1.2-3.1,2.7-3.1,4.6
						c0,1.1,0.4,1.9,1.3,2.7c0.8,0.7,1.9,1.1,3.2,1.1C248.2,41.5,250.3,40.5,252.5,38.5z"/>
					<path fill="#FFFFFF" d="M274.5,21.9v2.6c-2.3-1.5-4.3-2.3-6.2-2.3c-1.4,0-2.5,0.4-3.4,1.1c-0.9,0.7-1.4,1.6-1.4,2.7
						c0,0.8,0.3,1.5,0.9,2.1c0.6,0.6,2.1,1.5,4.7,2.4c2.6,1,4.2,2,5,3.1c0.8,1.1,1.2,2.2,1.2,3.6c0,1.8-0.7,3.2-2.1,4.4
						c-1.4,1.2-3.2,1.8-5.3,1.8c-2.3,0-4.5-0.7-6.8-2.1V39c2.7,1.4,5,2.1,7.1,2.1c1.4,0,2.5-0.4,3.4-1.1c0.9-0.7,1.3-1.7,1.3-2.8
						c0-0.8-0.3-1.5-0.9-2.2c-0.6-0.7-2.2-1.5-4.7-2.5c-2.6-1-4.2-2-5-3c-0.8-1-1.1-2.1-1.1-3.3c0-1.7,0.7-3.2,2.1-4.4
						c1.4-1.2,3.1-1.8,5.2-1.8C270.3,20,272.3,20.6,274.5,21.9z"/>
				</g>
			</g>
		</g>
		<g>
			<path fill="#7C7C81" d="M292.3,7.3c0,1.3-1,2.3-2.3,2.3c-1.3,0-2.3-1-2.3-2.3c0-1.3,1-2.3,2.3-2.3C291.2,4.9,292.3,6,292.3,7.3z
				 M287.9,7.3c0,1.1,0.9,2,2,2c1.1,0,2-0.9,2-2c0-1.1-0.9-2-2-2C288.8,5.2,287.9,6.1,287.9,7.3z M290,6c0.5,0,0.8,0.2,0.8,0.7
				c0,0.3-0.1,0.6-0.7,0.7c0.3,0.2,0.4,0.2,0.8,1.1h-0.4c-0.4-1-0.6-1.1-1.1-1.1h-0.1v1.1H289V6H290z M289.7,7.2
				c0.6,0,0.8-0.1,0.8-0.5c0-0.3-0.2-0.4-0.7-0.4h-0.4v0.9H289.7z"/>
		</g>
	</g>
	<g>
		<g>
			<path fill="#7C7C81" d="M66.5,64.1h-2.2v5.5h-0.9v-5.5h-2.2v-0.8h5.3V64.1z"/>
			<path fill="#7C7C81" d="M74.6,69.6h-0.9v-2.8h-3.6v2.8h-0.9v-6.4h0.9V66h3.6v-2.8h0.9V69.6z"/>
			<path fill="#7C7C81" d="M81.4,64.1h-2.7V66h2.6v0.8h-2.6v2h2.8v0.8h-3.7v-6.4h3.6V64.1z"/>
			<path fill="#7C7C81" d="M90.7,63.2c1.4,0,2,0.8,2,1.8c0,1-0.7,1.8-2.1,1.8h-1v2.7h-0.9v-6.4H90.7z M89.7,66h1
				c0.7,0,1.1-0.4,1.1-1c0-0.5-0.3-1-1.1-1h-1.1V66z"/>
			<path fill="#7C7C81" d="M98.5,63.2c2.1,0,3.4,1.5,3.4,3.3c0,1.7-1.3,3.3-3.4,3.3c-2.1,0-3.4-1.5-3.4-3.3
				C95.1,64.7,96.5,63.2,98.5,63.2z M98.5,68.8c1.4,0,2.5-1,2.5-2.4c0-1.4-1.1-2.4-2.5-2.4c-1.4,0-2.5,1-2.5,2.4
				C96,67.8,97.1,68.8,98.5,68.8z"/>
			<path fill="#7C7C81" d="M110.9,69.7h-0.2l-2.1-5.2l-2.1,5.2h-0.2l-2.6-6.4h0.9l1.7,4.4l1.8-4.4h0.9l1.8,4.4l1.7-4.4h0.9
				L110.9,69.7z"/>
			<path fill="#7C7C81" d="M119.7,64.1H117V66h2.6v0.8H117v2h2.8v0.8h-3.7v-6.4h3.6V64.1z"/>
			<path fill="#7C7C81" d="M124.2,63.2c1.3,0,2.1,0.7,2.1,1.8c0,0.7-0.4,1.3-1.1,1.6c0.6,0.4,0.9,1,1.4,1.8c0.3,0.4,0.4,0.6,0.9,1.3
				h-1.1l-0.8-1.3c-0.8-1.3-1.2-1.5-1.7-1.5h-0.4v2.8h-0.9v-6.4H124.2z M123.5,66h0.6c1,0,1.3-0.5,1.2-1c0-0.6-0.4-1-1.2-1h-0.6V66z
				"/>
			<path fill="#7C7C81" d="M138.1,64.1h-2.2v5.5H135v-5.5h-2.2v-0.8h5.3V64.1z"/>
			<path fill="#7C7C81" d="M143.3,63.2c2.1,0,3.4,1.5,3.4,3.3c0,1.7-1.3,3.3-3.4,3.3c-2.1,0-3.4-1.5-3.4-3.3
				C139.9,64.7,141.3,63.2,143.3,63.2z M143.3,68.8c1.4,0,2.5-1,2.5-2.4c0-1.4-1.1-2.4-2.5-2.4c-1.4,0-2.5,1-2.5,2.4
				C140.9,67.8,141.9,68.8,143.3,68.8z"/>
			<path fill="#7C7C81" d="M155.1,69.6h-0.9v-6.4h0.9V69.6z"/>
			<path fill="#7C7C81" d="M164.2,69.6h-0.8l-4.2-4.9v4.9h-0.9v-6.4h0.7l4.3,4.9v-4.9h0.9V69.6z"/>
			<path fill="#7C7C81" d="M170.9,64.1h-2.5v1.8h2.5v0.8h-2.5v3h-0.9v-6.4h3.4V64.1z"/>
			<path fill="#7C7C81" d="M174.6,68.8h2.9v0.8h-3.8v-6.4h0.9V68.8z"/>
			<path fill="#7C7C81" d="M185.5,67.1c0,1.6-0.9,2.6-2.8,2.6c-1.3,0-2.6-0.8-2.6-2.5v-3.9h0.9V67c0,0.7,0.1,1,0.4,1.3
				c0.4,0.4,0.8,0.5,1.4,0.5c0.7,0,1.2-0.2,1.5-0.5c0.3-0.3,0.4-0.8,0.4-1.4v-3.7h0.9V67.1z"/>
			<path fill="#7C7C81" d="M192.2,64.1h-2.7V66h2.6v0.8h-2.6v2h2.8v0.8h-3.7v-6.4h3.6V64.1z"/>
			<path fill="#7C7C81" d="M201,69.6h-0.8l-4.2-4.9v4.9h-0.9v-6.4h0.7l4.3,4.9v-4.9h0.9V69.6z"/>
			<path fill="#7C7C81" d="M209.6,64.7c-0.8-0.5-1.5-0.7-2.2-0.7c-1.5,0-2.5,1-2.5,2.4c0,1.4,1,2.4,2.6,2.4c0.7,0,1.5-0.3,2.2-0.7v1
				c-0.6,0.3-1.3,0.6-2.3,0.6c-2.4,0-3.4-1.8-3.4-3.2c0-1.9,1.5-3.4,3.5-3.4c0.7,0,1.3,0.2,2.2,0.5V64.7z"/>
			<path fill="#7C7C81" d="M216.2,64.1h-2.7V66h2.6v0.8h-2.6v2h2.8v0.8h-3.7v-6.4h3.6V64.1z"/>
		</g>
		<g>
			<path fill="#7C7C81" d="M221.1,63.7h-1.1v2.7h-0.4v-2.7h-1.1v-0.4h2.6V63.7z"/>
			<path fill="#7C7C81" d="M224.4,66.4H224V64h0l-1,1.2h-0.1l-1-1.2h0v2.4h-0.4v-3.1h0.4l1,1.3l1-1.3h0.4V66.4z"/>
		</g>
	</g>
</g>
</svg>
